<svg width="110" height="110" viewBox="0 0 110 110" fill="none" xmlns="http://www.w3.org/2000/svg">
<path d="M55.0003 108.333C84.4555 108.333 108.334 84.4545 108.334 54.9993C108.334 25.5442 84.4555 1.66602 55.0003 1.66602C25.5451 1.66602 1.66699 25.5442 1.66699 54.9993C1.66699 84.4545 25.5451 108.333 55.0003 108.333Z" fill="#E6E0FF" stroke="#E6E0FF" stroke-width="2.5" stroke-linecap="round" stroke-linejoin="round"/>
<path d="M55.6402 59.1599C55.2668 59.1066 54.7868 59.1066 54.3602 59.1599C44.9735 58.8399 37.5068 51.1599 37.5068 41.7199C37.5068 32.0666 45.2935 24.2266 55.0002 24.2266C64.6535 24.2266 72.4935 32.0666 72.4935 41.7199C72.4402 51.1599 65.0268 58.8399 55.6402 59.1599Z" fill="#D0C5FF" stroke="#D0C5FF" stroke-width="2.5" stroke-linecap="round" stroke-linejoin="round"/>
<path d="M90.947 94.3603C81.4537 103.054 68.867 108.334 55.0004 108.334C41.1337 108.334 28.547 103.054 19.0537 94.3603C19.587 89.347 22.787 84.4403 28.4937 80.6003C43.107 70.8936 67.0004 70.8936 81.507 80.6003C87.2137 84.4403 90.4137 89.347 90.947 94.3603Z" fill="#D0C5FF" stroke="#D0C5FF" stroke-width="2.5" stroke-linecap="round" stroke-linejoin="round"/>
</svg>
