<svg width="100" height="100" viewBox="0 0 100 100" fill="none" xmlns="http://www.w3.org/2000/svg">
<rect width="100" height="100" rx="20" fill="white"/>
<path d="M36.6847 70.2785H29.7636C28.7935 70.2785 28 69.4597 28 68.4591V34.8194C28 33.8185 28.7935 33 29.7636 33H36.6847C37.655 33 38.4484 33.8185 38.4484 34.8194V68.4591C38.4485 69.4596 37.655 70.2785 36.6847 70.2785Z" fill="#FF82AF"/>
<path d="M75.7558 61.1164C74.1966 63.9598 71.9696 66.1973 69.0768 67.8301C66.1827 69.4619 62.8128 70.2785 58.9667 70.2785H48.0311C45.6019 70.2785 43.6328 68.2839 43.6328 65.8226V33H58.9667C62.8128 33 66.1827 33.7898 69.0768 35.3691C71.9696 36.949 74.1966 39.1432 75.7558 41.9505C77.3154 44.7597 78.0951 47.9531 78.0951 51.5339C78.0951 55.0796 77.3155 58.2734 75.7558 61.1164ZM64.1125 57.6941C65.6371 56.2552 66.3996 54.2016 66.3996 51.534C66.3996 48.8666 65.6371 46.8132 64.1125 45.3735C62.5871 43.9343 60.5262 43.2148 57.9276 43.2148H55.1723V57.0626C55.1723 58.6038 56.4058 59.8533 57.9276 59.8533C60.5262 59.8531 62.5871 59.1341 64.1125 57.6941Z" fill="#242954"/>
</svg>
