<svg width="400" height="400" viewBox="0 0 400 400" fill="none" xmlns="http://www.w3.org/2000/svg">
<rect width="400" height="400" fill="white"/>
<rect x="42" y="42" width="316" height="316" rx="24" fill="#C4D6F8"/>
<path d="M354.957 309.477L292.005 245.131C290.208 243.304 287.809 242.199 285.259 242.024C282.709 241.85 280.183 242.617 278.156 244.182L208.069 298.295C205.945 299.949 204.533 302.358 204.123 305.027C203.713 307.696 204.337 310.421 205.866 312.641L233.985 353.464C234.949 354.861 236.235 356.004 237.733 356.793C239.231 357.583 240.896 357.997 242.588 358H326.524C334.872 358 342.878 354.666 348.781 348.731C354.684 342.797 358 334.747 358 326.354V316.861C357.988 314.094 356.896 311.442 354.957 309.477Z" fill="#6192EB"/>
<path d="M250.127 341.467L155.619 204.568C154.719 203.253 153.531 202.16 152.148 201.372C150.764 200.585 149.22 200.123 147.632 200.021C146.044 199.92 144.454 200.182 142.981 200.787C141.509 201.392 140.193 202.325 139.133 203.515L44.6256 308.822C42.9132 310.769 41.9783 313.281 42.0004 315.877V326.408C42.0004 334.787 45.3194 342.822 51.2273 348.747C57.1351 354.672 65.1479 358 73.5029 358H241.516C243.432 357.997 245.31 357.468 246.948 356.471C248.586 355.475 249.92 354.047 250.807 352.345C251.694 350.642 252.099 348.728 251.979 346.811C251.86 344.893 251.219 343.045 250.127 341.467Z" fill="#6192EB"/>
<path d="M243 220C254.598 220 264 210.598 264 199C264 187.402 254.598 178 243 178C231.402 178 222 187.402 222 199C222 210.598 231.402 220 243 220Z" fill="#FAC270"/>
</svg>
